<svg xmlns="http://www.w3.org/2000/svg" width="24" height="24" fill="#2d5ca6" stroke="#2d5ca6" version="1.1" viewBox="-40 0 600 600" xml:space="preserve"><path d="M50.047,411.907C22.404,411.907,0,434.307,0,461.953C0,489.6,22.404,512,50.047,512 c27.642,0,50.046-22.4,50.046-50.047C100.093,434.307,77.689,411.907,50.047,411.907z"/><path d="M256,411.907c-27.642,0-50.047,22.4-50.047,50.046C205.953,489.6,228.358,512,256,512 c27.642,0,50.047-22.4,50.047-50.047C306.047,434.307,283.642,411.907,256,411.907z"/><path d="M461.953,411.907c-27.638,0-50.046,22.4-50.046,50.046c0,27.647,22.408,50.047,50.046,50.047 S512,489.6,512,461.953C512,434.307,489.591,411.907,461.953,411.907z"/></svg>